<?xml version="1.0" standalone="no"?>
<!DOCTYPE svg PUBLIC "-//W3C//DTD SVG 20010904//EN"
 "http://www.w3.org/TR/2001/REC-SVG-20010904/DTD/svg10.dtd">
<svg version="1.0" xmlns="http://www.w3.org/2000/svg"
 width="449.000000pt" height="361.000000pt" viewBox="0 0 449.000000 361.000000"
 preserveAspectRatio="xMidYMid meet">

<g transform="translate(0.000000,361.000000) scale(0.100000,-0.100000)"
fill="#000000" stroke="none">
<path d="M1827 2682 c-10 -10 -17 -26 -17 -34 0 -20 29 -32 45 -18 6 5 15 7
18 4 3 -4 14 -4 23 0 14 5 14 9 3 23 -10 12 -10 14 -1 9 15 -9 16 6 0 22 -18
18 -53 15 -71 -6z"/>
<path d="M1504 2655 c3 -8 0 -17 -6 -21 -7 -4 -8 -3 -4 4 4 7 1 12 -8 12 -22
0 -20 -12 5 -38 23 -25 48 -20 27 6 -11 13 -11 14 8 4 16 -9 21 -8 21 3 0 8
-5 12 -10 8 -5 -3 -7 3 -3 14 5 14 1 19 -15 20 -14 1 -19 -3 -15 -12z"/>
<path d="M1302 2638 c7 -19 38 -22 38 -4 0 10 -9 16 -21 16 -12 0 -19 -5 -17
-12z"/>
<path d="M2725 2591 c28 -6 33 -9 15 -10 -18 -1 -21 -4 -11 -10 11 -7 9 -11
-8 -21 -13 -6 -29 -27 -37 -45 -7 -18 -18 -35 -24 -37 -5 -1 32 -3 84 -3 52 0
92 4 89 8 -3 4 8 19 24 33 15 13 22 24 15 24 -9 0 -10 5 -2 19 5 11 10 22 10
24 0 5 -73 16 -145 22 -47 3 -48 3 -10 -4z"/>
<path d="M2491 2571 c-24 -13 -29 -19 -19 -24 14 -5 78 26 78 38 0 10 -25 4
-59 -14z"/>
<path d="M1690 2555 c0 -8 5 -15 10 -15 6 0 10 7 10 15 0 8 -4 15 -10 15 -5 0
-10 -7 -10 -15z"/>
<path d="M3050 2525 c0 -1 15 -14 34 -29 26 -19 34 -22 32 -10 -1 9 -11 21
-22 27 -19 11 -44 18 -44 12z"/>
<path d="M1285 2481 c-3 -5 -1 -12 5 -16 12 -7 30 2 30 16 0 12 -27 12 -35 0z"/>
<path d="M3218 2483 c12 -2 32 -2 45 0 12 2 2 4 -23 4 -25 0 -35 -2 -22 -4z"/>
<path d="M3148 2473 c12 -2 22 -11 22 -19 0 -8 5 -14 11 -14 6 0 8 7 5 16 -3
9 -6 18 -6 20 0 2 -12 3 -27 3 -24 -2 -25 -2 -5 -6z"/>
<path d="M3209 2423 c10 -20 71 -59 71 -46 0 8 -65 63 -75 63 -3 0 -1 -8 4
-17z"/>
<path d="M1395 2370 c-3 -5 5 -31 17 -57 l23 -48 60 -3 c82 -4 97 2 123 47 29
52 28 61 -7 61 -20 0 -34 -8 -45 -25 -23 -34 -59 -32 -93 5 -26 29 -66 40 -78
20z"/>
<path d="M1790 2273 c0 -4 5 -15 10 -23 8 -13 10 -13 10 2 0 9 -4 20 -10 23
-5 3 -10 3 -10 -2z"/>
<path d="M736 2258 c3 -5 10 -6 15 -3 13 9 11 12 -6 12 -8 0 -12 -4 -9 -9z"/>
<path d="M835 2249 c-4 -6 -5 -12 -2 -15 2 -3 7 2 10 11 7 17 1 20 -8 4z"/>
<path d="M1867 2120 c-3 -11 -2 -22 2 -24 4 -3 8 6 9 20 2 29 -4 31 -11 4z"/>
<path d="M1902 2118 c-30 -30 -5 -70 89 -141 66 -49 200 -96 469 -162 94 -24
274 -116 354 -183 63 -51 156 -159 168 -194 3 -7 8 -11 11 -8 17 16 -95 206
-128 216 -11 4 -49 30 -85 59 -81 64 -137 96 -226 130 -78 30 -305 105 -316
105 -4 0 -55 23 -113 50 -58 28 -108 50 -110 50 -2 0 -2 -6 1 -14 8 -21 -9
-26 -26 -8 -13 14 -12 15 3 9 15 -6 16 -4 7 13 -13 24 -30 26 -30 3 0 -13 -3
-14 -12 -5 -8 8 -8 15 2 27 7 8 10 18 6 22 -3 3 -6 1 -6 -5 0 -7 -5 -12 -11
-12 -6 0 -8 9 -4 23 5 17 4 19 -4 7 -10 -14 -12 -13 -15 9 -2 17 -12 21 -24 9z
m16 -5 c-1 -5 4 -18 11 -31 12 -22 11 -23 -8 -12 -21 11 -27 30 -14 43 8 9 14
9 11 0z"/>
<path d="M1100 2070 c0 -5 5 -10 10 -10 6 0 10 5 10 10 0 6 -4 10 -10 10 -5 0
-10 -4 -10 -10z"/>
<path d="M2763 2053 c-18 -7 -16 -21 5 -27 9 -3 -1 -3 -23 -1 -36 4 -37 4 -15
-6 15 -7 20 -13 13 -16 -19 -7 -16 -17 13 -47 20 -19 22 -26 11 -26 -8 0 -17
-6 -20 -12 -2 -9 22 -20 73 -34 148 -41 200 -66 260 -124 63 -62 97 -123 106
-193 7 -46 -8 -119 -28 -141 -27 -32 5 -33 51 -2 29 19 38 34 57 102 28 93 30
142 9 212 -42 139 -166 238 -373 296 -90 26 -115 29 -139 19z"/>
<path d="M3694 1975 c8 -22 21 -56 29 -75 l15 -34 -3 48 c-2 37 -10 55 -29 75
l-27 26 15 -40z"/>
<path d="M1150 1976 c0 -14 4 -27 9 -31 12 -7 25 31 16 45 -11 18 -25 10 -25
-14z"/>
<path d="M3734 1819 c-4 -8 -3 -9 5 -5 8 6 10 0 5 -18 -4 -16 -2 -26 5 -26 13
0 15 46 2 55 -5 3 -13 0 -17 -6z"/>
<path d="M1460 1804 c0 -5 8 -14 18 -21 15 -9 19 -8 19 3 0 8 -3 12 -5 9 -3
-3 -11 0 -19 6 -7 6 -13 7 -13 3z"/>
<path d="M1649 1796 c9 -11 9 -15 -1 -18 -7 -3 2 -5 20 -5 17 0 32 2 32 3 0 1
-14 9 -31 18 -24 12 -28 12 -20 2z"/>
<path d="M1535 1722 c38 -39 65 -56 49 -30 -14 23 -12 49 4 43 12 -4 13 -3 2
10 -19 23 -29 18 -24 -11 4 -23 3 -24 -16 -14 -12 6 -18 16 -14 23 4 7 4 9 -1
5 -4 -4 -15 -3 -24 4 -9 6 2 -7 24 -30z"/>
<path d="M1680 1752 c0 -15 25 -21 41 -11 9 5 9 9 2 9 -6 0 -18 3 -27 6 -9 3
-16 2 -16 -4z"/>
<path d="M1740 1730 c0 -5 -7 -10 -15 -10 -8 0 -15 -7 -15 -15 0 -8 -9 -15
-19 -15 -11 0 -23 -4 -26 -10 -3 -5 0 -10 7 -10 9 0 9 -3 -2 -10 -13 -8 -12
-13 8 -32 12 -12 22 -17 22 -11 0 7 -8 17 -17 22 -17 10 -17 10 -1 11 17 0 42
-33 32 -42 -3 -3 2 -8 11 -12 13 -4 15 -1 10 14 -4 11 -2 20 4 20 6 0 11 -11
11 -25 0 -17 9 -29 29 -39 16 -9 31 -12 35 -9 3 4 6 2 6 -4 0 -11 72 -36 191
-67 73 -18 141 -24 434 -36 249 -10 367 -25 451 -59 53 -20 117 -31 115 -18
-1 4 -1 11 -1 17 0 5 -22 16 -48 23 -27 8 -74 31 -105 51 -121 78 -284 127
-503 151 -209 24 -357 52 -476 90 -112 37 -138 41 -138 25z m-20 -60 c0 -5 -2
-10 -4 -10 -3 0 -8 5 -11 10 -3 6 -1 10 4 10 6 0 11 -4 11 -10z m90 -76 c0 -8
-19 -13 -24 -6 -3 5 1 9 9 9 8 0 15 -2 15 -3z"/>
<path d="M1600 1676 c0 -2 8 -10 18 -17 15 -13 16 -12 3 4 -13 16 -21 21 -21
13z"/>
<path d="M850 1607 c0 -20 46 -67 64 -66 6 0 6 3 -2 6 -6 2 -9 10 -6 15 4 7 2
8 -4 4 -7 -4 -20 6 -32 26 -14 23 -20 27 -20 15z"/>
<path d="M1417 1504 c2 -6 -8 -26 -24 -44 -23 -28 -24 -31 -6 -22 12 7 25 21
28 32 7 22 10 23 40 10 19 -8 19 -9 -3 -9 -13 -1 -20 -5 -17 -11 3 -5 0 -10
-8 -10 -8 0 -20 -6 -26 -14 -9 -10 -3 -19 27 -38 96 -64 217 -107 343 -121
l96 -11 49 31 c60 37 141 73 163 73 9 0 23 5 31 10 24 16 -6 30 -65 30 -59 1
-111 12 -219 46 -61 20 -81 22 -90 13 -8 -9 -8 -10 2 -5 6 4 12 2 12 -4 0 -6
4 -9 9 -6 4 3 17 -4 27 -15 9 -11 37 -25 61 -31 65 -16 53 -30 -19 -22 -121
12 -235 42 -325 86 -50 24 -89 38 -86 32z"/>
<path d="M1150 1438 c0 -4 7 -8 15 -8 8 0 15 4 15 8 0 5 -7 9 -15 9 -8 0 -15
-4 -15 -9z"/>
<path d="M2618 1363 c7 -3 16 -2 19 1 4 3 -2 6 -13 5 -11 0 -14 -3 -6 -6z"/>
<path d="M2535 1340 c-109 -17 -324 -79 -351 -101 -6 -5 -36 -18 -66 -28 -168
-58 -378 -217 -473 -359 -22 -31 -47 -67 -58 -79 -20 -22 -40 -93 -27 -93 4 0
19 17 32 38 60 89 210 220 330 287 143 81 313 155 354 155 8 0 57 24 108 54
107 61 213 107 270 115 43 7 64 32 24 30 -12 -1 -77 -9 -143 -19z"/>
<path d="M1270 1340 c0 -5 7 -10 16 -10 8 0 12 5 9 10 -3 6 -10 10 -16 10 -5
0 -9 -4 -9 -10z"/>
<path d="M3961 1264 c0 -11 3 -14 6 -6 3 7 2 16 -1 19 -3 4 -6 -2 -5 -13z"/>
<path d="M1384 1256 c-4 -9 -5 -18 -3 -20 2 -2 42 -6 87 -10 65 -5 83 -4 80 6
-5 14 -49 27 -115 35 -34 4 -44 1 -49 -11z"/>
<path d="M840 1245 c0 -12 16 -15 80 -15 64 0 80 3 80 15 0 12 -16 15 -80 15
-64 0 -80 -3 -80 -15z"/>
<path d="M3255 1209 c-81 -52 -191 -93 -365 -136 -385 -94 -550 -200 -666
-427 -21 -42 -38 -62 -52 -64 -16 -3 -22 -12 -26 -45 -3 -23 -5 -51 -4 -62 1
-16 4 -15 22 10 26 37 109 119 201 198 97 84 232 146 405 187 226 52 252 60
347 102 75 32 106 53 161 107 52 51 145 162 107 129 -4 -4 -14 0 -22 10 -9 10
-12 11 -7 2 4 -9 -3 -6 -17 6 l-24 21 -60 -38z"/>
<path d="M2504 1155 c11 -8 30 -16 43 -16 31 -2 36 -3 49 -11 6 -4 22 0 35 10
l24 17 -30 6 c-16 4 -55 7 -85 7 -50 1 -53 0 -36 -13z"/>
<path d="M1530 1147 c0 -12 4 -16 13 -11 6 4 8 3 4 -1 -11 -13 -38 -15 -31 -3
5 7 2 8 -5 4 -7 -5 -10 -14 -7 -22 4 -11 1 -12 -12 -5 -15 8 -18 5 -20 -18 -3
-40 30 -68 66 -55 36 12 43 69 13 105 -17 21 -20 21 -21 6z"/>
<path d="M3630 1046 c0 -8 -10 -22 -22 -30 -12 -9 -18 -16 -12 -16 13 0 54 38
54 50 0 6 -4 10 -10 10 -5 0 -10 -6 -10 -14z"/>
<path d="M2002 878 c-17 -17 -15 -48 4 -55 23 -8 47 20 39 46 -7 23 -25 27
-43 9z"/>
<path d="M2721 774 c-63 -17 -73 -22 -66 -34 6 -9 176 -5 252 6 30 4 40 10 36
20 -3 8 -9 11 -14 8 -5 -3 -9 0 -9 5 0 16 -135 12 -199 -5z"/>
<path d="M3562 753 c2 -21 9 -29 27 -31 15 -2 21 0 17 7 -4 6 -3 11 2 11 6 0
8 9 5 20 -4 13 -14 20 -30 20 -21 0 -24 -4 -21 -27z"/>
<path d="M2773 683 c-51 -9 -18 -23 55 -23 81 0 122 7 122 20 0 8 -135 10
-177 3z"/>
<path d="M2590 640 c0 -5 5 -10 11 -10 5 0 7 5 4 10 -3 6 -8 10 -11 10 -2 0
-4 -4 -4 -10z"/>
<path d="M2771 617 c-9 -11 -8 -17 4 -27 19 -16 47 -5 43 17 -4 23 -31 28 -47
10z"/>
<path d="M2490 595 c-16 -19 -6 -45 19 -45 23 0 35 28 20 46 -15 18 -24 18
-39 -1z"/>
</g>
</svg>
